<?xml version="1.0" encoding="utf-8"?>
<!-- Generator: Adobe Illustrator 17.1.0, SVG Export Plug-In . SVG Version: 6.00 Build 0)  -->
<!DOCTYPE svg PUBLIC "-//W3C//DTD SVG 1.1//EN" "http://www.w3.org/Graphics/SVG/1.1/DTD/svg11.dtd">
<svg version="1.1" id="Layer_1" xmlns="http://www.w3.org/2000/svg" xmlns:xlink="http://www.w3.org/1999/xlink" x="0px" y="0px"
	 viewBox="0 0 159.125 40" enable-background="new 0 0 159.125 40" xml:space="preserve">
<g>
	<path fill="#FFFF00" d="M0,17.999V0.735h6.351c1.192,0,2.208,0.111,3.045,0.332c0.837,0.221,1.521,0.533,2.05,0.936
		c0.529,0.403,0.914,0.893,1.155,1.469c0.241,0.577,0.361,1.22,0.361,1.931c0,0.387-0.055,0.76-0.166,1.119
		c-0.111,0.36-0.284,0.697-0.521,1.013c-0.237,0.316-0.541,0.602-0.912,0.859c-0.371,0.257-0.817,0.48-1.339,0.67
		c1.137,0.276,1.979,0.725,2.524,1.345c0.545,0.62,0.817,1.416,0.817,2.387c0,0.734-0.142,1.418-0.427,2.05
		c-0.284,0.632-0.701,1.183-1.25,1.653s-1.226,0.837-2.032,1.102c-0.806,0.265-1.726,0.397-2.761,0.397H0z M4.005,7.999H6.09
		c0.442,0,0.841-0.031,1.197-0.095C7.642,7.841,7.944,7.73,8.193,7.572C8.442,7.414,8.632,7.197,8.762,6.92
		c0.13-0.276,0.195-0.624,0.195-1.043c0-0.41-0.051-0.752-0.154-1.025C8.701,4.58,8.543,4.361,8.329,4.195
		C8.116,4.029,7.845,3.911,7.518,3.84C7.19,3.769,6.801,3.733,6.351,3.733H4.005V7.999z M4.005,10.676v4.301h2.82
		c0.529,0,0.962-0.067,1.298-0.202c0.336-0.134,0.598-0.308,0.788-0.521c0.19-0.213,0.32-0.454,0.391-0.723
		c0.071-0.268,0.107-0.541,0.107-0.817c0-0.316-0.041-0.6-0.124-0.853c-0.083-0.253-0.225-0.466-0.427-0.64
		c-0.202-0.174-0.468-0.308-0.8-0.403c-0.332-0.094-0.751-0.142-1.256-0.142H4.005z"/>
	<path fill="#FFFF00" d="M24.147,11.435v6.564h-4.005v-6.564L13.886,0.735h3.531c0.347,0,0.624,0.081,0.83,0.243
		c0.205,0.162,0.371,0.369,0.498,0.622l2.441,5.024c0.197,0.403,0.379,0.774,0.545,1.114s0.312,0.675,0.438,1.007
		c0.118-0.339,0.261-0.679,0.427-1.019c0.166-0.339,0.344-0.707,0.533-1.102L25.545,1.6c0.047-0.103,0.112-0.205,0.195-0.308
		c0.083-0.103,0.178-0.195,0.284-0.279c0.107-0.083,0.229-0.15,0.367-0.201c0.138-0.051,0.29-0.077,0.456-0.077h3.555L24.147,11.435
		z"/>
	<path fill="#FFFF00" d="M36.304,14.8h6.398v3.199H32.299V0.735h4.005V14.8z"/>
	<path fill="#FFFF00" d="M61.28,9.361c0,1.248-0.215,2.409-0.646,3.483c-0.431,1.074-1.037,2.009-1.819,2.802
		c-0.782,0.794-1.724,1.416-2.826,1.866c-1.102,0.45-2.324,0.675-3.667,0.675s-2.567-0.225-3.673-0.675
		c-1.106-0.45-2.052-1.073-2.838-1.866c-0.786-0.794-1.394-1.728-1.825-2.802c-0.431-1.074-0.646-2.235-0.646-3.483
		c0-1.248,0.215-2.409,0.646-3.483c0.43-1.074,1.038-2.006,1.825-2.796c0.786-0.79,1.732-1.41,2.838-1.86
		c1.106-0.45,2.33-0.676,3.673-0.676s2.565,0.227,3.667,0.681c1.102,0.454,2.044,1.076,2.826,1.866
		c0.782,0.79,1.388,1.722,1.819,2.796C61.065,6.964,61.28,8.121,61.28,9.361z M57.181,9.361c0-0.853-0.111-1.621-0.332-2.305
		c-0.221-0.683-0.539-1.262-0.954-1.736c-0.415-0.474-0.922-0.837-1.523-1.09c-0.6-0.253-1.284-0.379-2.05-0.379
		c-0.774,0-1.463,0.127-2.068,0.379c-0.604,0.253-1.114,0.616-1.528,1.09c-0.415,0.474-0.733,1.053-0.954,1.736
		c-0.221,0.683-0.332,1.452-0.332,2.305c0,0.861,0.111,1.633,0.332,2.316c0.221,0.683,0.539,1.262,0.954,1.736
		c0.415,0.474,0.924,0.835,1.528,1.084c0.604,0.249,1.293,0.373,2.068,0.373c0.766,0,1.449-0.124,2.05-0.373
		c0.6-0.249,1.108-0.61,1.523-1.084c0.415-0.474,0.733-1.053,0.954-1.736C57.07,10.995,57.181,10.222,57.181,9.361z"/>
	<path fill="#FFFF00" d="M67.323,7.726h0.64c0.593,0,1.019-0.185,1.28-0.557l3.886-5.64c0.213-0.308,0.456-0.517,0.729-0.628
		c0.273-0.111,0.606-0.166,1.001-0.166h3.483l-5.119,6.979c-0.182,0.253-0.371,0.462-0.569,0.628
		c-0.198,0.166-0.399,0.304-0.605,0.415c0.3,0.111,0.575,0.263,0.823,0.456c0.249,0.194,0.476,0.453,0.681,0.776l5.213,8.01H75.19
		c-0.229,0-0.425-0.016-0.586-0.047c-0.162-0.031-0.302-0.079-0.421-0.142c-0.119-0.063-0.221-0.14-0.308-0.231
		c-0.087-0.091-0.17-0.195-0.249-0.314l-3.91-6.007c-0.142-0.221-0.322-0.377-0.539-0.468c-0.217-0.091-0.512-0.136-0.883-0.136
		h-0.972v7.346h-4.005V0.735h4.005V7.726z"/>
	<path fill="#FFFF00" d="M30.83,39.81h-3.104c-0.348,0-0.634-0.081-0.859-0.243c-0.225-0.162-0.381-0.369-0.468-0.622l-1.019-3.01
		h-6.564l-1.019,3.01c-0.079,0.221-0.233,0.421-0.462,0.598s-0.509,0.266-0.841,0.266h-3.128l6.683-17.263h4.1L30.83,39.81z
		 M19.74,33.211h4.715l-1.587-4.728c-0.103-0.3-0.223-0.653-0.362-1.06s-0.274-0.847-0.409-1.321
		c-0.126,0.482-0.256,0.928-0.391,1.339c-0.134,0.411-0.261,0.766-0.379,1.066L19.74,33.211z"/>
	<path fill="#FFFF00" d="M42.323,26.054c-0.118,0.19-0.243,0.332-0.373,0.427c-0.13,0.095-0.298,0.142-0.504,0.142
		c-0.182,0-0.377-0.057-0.586-0.172c-0.21-0.114-0.446-0.243-0.711-0.385c-0.265-0.142-0.567-0.271-0.906-0.385
		c-0.34-0.114-0.727-0.172-1.161-0.172c-0.75,0-1.309,0.16-1.676,0.48c-0.367,0.32-0.551,0.752-0.551,1.298
		c0,0.347,0.11,0.636,0.332,0.865c0.221,0.229,0.511,0.427,0.871,0.592s0.77,0.318,1.232,0.456c0.462,0.139,0.934,0.292,1.416,0.462
		c0.482,0.17,0.954,0.369,1.416,0.598c0.462,0.229,0.873,0.521,1.232,0.877c0.359,0.355,0.65,0.788,0.871,1.297
		s0.332,1.124,0.332,1.843c0,0.798-0.138,1.544-0.415,2.239c-0.277,0.695-0.678,1.301-1.203,1.819
		c-0.526,0.517-1.173,0.924-1.943,1.22C39.224,39.852,38.349,40,37.37,40c-0.537,0-1.084-0.055-1.641-0.166
		c-0.557-0.111-1.096-0.267-1.617-0.468c-0.521-0.202-1.011-0.44-1.469-0.717c-0.458-0.276-0.857-0.584-1.197-0.924l1.185-1.872
		c0.087-0.142,0.209-0.256,0.367-0.344c0.158-0.087,0.328-0.13,0.509-0.13c0.237,0,0.476,0.075,0.717,0.225
		c0.241,0.15,0.513,0.316,0.817,0.498s0.654,0.347,1.049,0.498c0.395,0.15,0.861,0.225,1.398,0.225c0.727,0,1.291-0.16,1.694-0.48
		c0.403-0.32,0.604-0.827,0.604-1.523c0-0.403-0.111-0.731-0.332-0.983c-0.221-0.253-0.511-0.462-0.871-0.628
		c-0.36-0.166-0.769-0.312-1.227-0.438c-0.458-0.126-0.928-0.267-1.41-0.421c-0.482-0.154-0.952-0.344-1.41-0.569
		c-0.458-0.225-0.867-0.521-1.227-0.889c-0.359-0.367-0.65-0.825-0.871-1.374c-0.221-0.549-0.332-1.227-0.332-2.032
		c0-0.647,0.13-1.28,0.391-1.896c0.261-0.616,0.644-1.165,1.149-1.647c0.505-0.482,1.126-0.867,1.86-1.155
		c0.735-0.288,1.576-0.433,2.524-0.433c0.529,0,1.045,0.041,1.546,0.124c0.502,0.083,0.978,0.206,1.428,0.367
		c0.45,0.162,0.871,0.355,1.262,0.581c0.391,0.225,0.741,0.48,1.049,0.764L42.323,26.054z"/>
	<path fill="#FFFF00" d="M55.877,26.054c-0.118,0.19-0.243,0.332-0.373,0.427c-0.13,0.095-0.298,0.142-0.504,0.142
		c-0.182,0-0.377-0.057-0.586-0.172c-0.21-0.114-0.446-0.243-0.711-0.385c-0.265-0.142-0.567-0.271-0.906-0.385
		c-0.34-0.114-0.727-0.172-1.161-0.172c-0.75,0-1.309,0.16-1.676,0.48c-0.367,0.32-0.551,0.752-0.551,1.298
		c0,0.347,0.11,0.636,0.332,0.865c0.221,0.229,0.511,0.427,0.871,0.592s0.77,0.318,1.232,0.456c0.462,0.139,0.934,0.292,1.416,0.462
		c0.482,0.17,0.954,0.369,1.416,0.598c0.462,0.229,0.873,0.521,1.232,0.877c0.359,0.355,0.65,0.788,0.871,1.297
		c0.221,0.509,0.332,1.124,0.332,1.843c0,0.798-0.138,1.544-0.415,2.239c-0.277,0.695-0.678,1.301-1.203,1.819
		c-0.526,0.517-1.173,0.924-1.943,1.22C52.779,39.852,51.904,40,50.925,40c-0.537,0-1.084-0.055-1.641-0.166
		c-0.557-0.111-1.096-0.267-1.617-0.468c-0.521-0.202-1.011-0.44-1.469-0.717c-0.458-0.276-0.857-0.584-1.197-0.924l1.185-1.872
		c0.087-0.142,0.209-0.256,0.367-0.344c0.158-0.087,0.328-0.13,0.509-0.13c0.237,0,0.476,0.075,0.717,0.225
		c0.241,0.15,0.513,0.316,0.817,0.498s0.654,0.347,1.049,0.498c0.395,0.15,0.861,0.225,1.398,0.225c0.727,0,1.291-0.16,1.694-0.48
		c0.403-0.32,0.604-0.827,0.604-1.523c0-0.403-0.111-0.731-0.332-0.983c-0.221-0.253-0.511-0.462-0.871-0.628
		c-0.36-0.166-0.768-0.312-1.227-0.438c-0.458-0.126-0.928-0.267-1.41-0.421c-0.482-0.154-0.952-0.344-1.41-0.569
		c-0.458-0.225-0.867-0.521-1.227-0.889c-0.359-0.367-0.65-0.825-0.871-1.374c-0.221-0.549-0.332-1.227-0.332-2.032
		c0-0.647,0.13-1.28,0.391-1.896c0.261-0.616,0.644-1.165,1.149-1.647c0.505-0.482,1.126-0.867,1.86-1.155
		c0.735-0.288,1.576-0.433,2.524-0.433c0.529,0,1.045,0.041,1.546,0.124c0.502,0.083,0.978,0.206,1.428,0.367
		c0.45,0.162,0.871,0.355,1.262,0.581c0.391,0.225,0.741,0.48,1.049,0.764L55.877,26.054z"/>
	<path fill="#FFFF00" d="M76.731,31.173c0,1.248-0.215,2.409-0.646,3.483c-0.431,1.074-1.037,2.009-1.819,2.802
		c-0.782,0.794-1.724,1.416-2.826,1.866C70.338,39.775,69.116,40,67.773,40s-2.567-0.225-3.673-0.675
		c-1.106-0.45-2.052-1.073-2.838-1.866c-0.786-0.794-1.394-1.728-1.825-2.802c-0.431-1.074-0.646-2.235-0.646-3.483
		c0-1.248,0.215-2.409,0.646-3.483c0.43-1.074,1.038-2.006,1.825-2.796c0.786-0.79,1.732-1.41,2.838-1.86
		c1.106-0.45,2.33-0.676,3.673-0.676s2.565,0.227,3.667,0.681c1.102,0.454,2.044,1.076,2.826,1.866
		c0.782,0.79,1.388,1.722,1.819,2.796C76.515,28.776,76.731,29.933,76.731,31.173z M72.631,31.173c0-0.853-0.111-1.621-0.332-2.305
		c-0.221-0.683-0.539-1.262-0.954-1.736c-0.415-0.474-0.922-0.837-1.523-1.09c-0.6-0.253-1.284-0.379-2.05-0.379
		c-0.774,0-1.463,0.127-2.068,0.379c-0.604,0.253-1.114,0.616-1.528,1.09c-0.415,0.474-0.733,1.053-0.954,1.736
		c-0.221,0.683-0.332,1.452-0.332,2.305c0,0.861,0.111,1.633,0.332,2.316c0.221,0.683,0.539,1.262,0.954,1.736
		c0.415,0.474,0.924,0.835,1.528,1.084c0.604,0.249,1.293,0.373,2.068,0.373c0.766,0,1.449-0.124,2.05-0.373
		c0.6-0.249,1.108-0.61,1.523-1.084c0.415-0.474,0.733-1.053,0.954-1.736C72.521,32.806,72.631,32.034,72.631,31.173z"/>
	<path fill="#FFFF00" d="M91.08,35.343c0.094,0,0.189,0.018,0.284,0.053c0.095,0.036,0.185,0.097,0.273,0.184l1.588,1.67
		c-0.695,0.909-1.566,1.594-2.613,2.056C89.565,39.769,88.326,40,86.897,40c-1.311,0-2.486-0.223-3.525-0.67
		c-1.039-0.446-1.919-1.062-2.642-1.848c-0.723-0.786-1.278-1.718-1.665-2.796c-0.387-1.078-0.58-2.249-0.58-3.513
		c0-1.287,0.221-2.47,0.663-3.549c0.443-1.078,1.061-2.008,1.855-2.79s1.743-1.39,2.849-1.825c1.106-0.434,2.326-0.652,3.661-0.652
		c0.648,0,1.258,0.058,1.831,0.172c0.573,0.114,1.108,0.273,1.605,0.474c0.498,0.202,0.956,0.443,1.374,0.723
		c0.419,0.281,0.79,0.591,1.114,0.93l-1.351,1.813c-0.087,0.111-0.19,0.211-0.308,0.302c-0.119,0.091-0.284,0.136-0.498,0.136
		c-0.142,0-0.276-0.031-0.403-0.095c-0.127-0.063-0.261-0.14-0.403-0.231c-0.142-0.091-0.298-0.189-0.468-0.296
		c-0.17-0.107-0.371-0.205-0.604-0.296c-0.233-0.091-0.506-0.168-0.817-0.231c-0.312-0.063-0.678-0.095-1.096-0.095
		c-0.727,0-1.39,0.129-1.991,0.385c-0.6,0.257-1.116,0.624-1.546,1.102c-0.431,0.478-0.766,1.056-1.007,1.736
		c-0.241,0.679-0.361,1.442-0.361,2.287c0,0.885,0.12,1.671,0.361,2.358c0.241,0.687,0.569,1.266,0.984,1.736
		c0.415,0.47,0.898,0.827,1.451,1.072c0.553,0.245,1.145,0.367,1.777,0.367c0.363,0,0.695-0.018,0.995-0.053
		c0.3-0.036,0.579-0.097,0.835-0.184c0.256-0.087,0.501-0.199,0.735-0.337c0.233-0.138,0.468-0.31,0.705-0.516
		c0.095-0.079,0.197-0.144,0.308-0.195S90.961,35.343,91.08,35.343z"/>
	<path fill="#FFFF00" d="M99.551,39.81h-4.028V22.547h4.028V39.81z"/>
	<path fill="#FFFF00" d="M118.935,39.81h-3.104c-0.348,0-0.634-0.081-0.859-0.243c-0.225-0.162-0.381-0.369-0.468-0.622l-1.019-3.01
		h-6.564l-1.019,3.01c-0.079,0.221-0.233,0.421-0.462,0.598c-0.229,0.178-0.509,0.266-0.841,0.266h-3.128l6.683-17.263h4.1
		L118.935,39.81z M107.845,33.211h4.715l-1.587-4.728c-0.103-0.3-0.223-0.653-0.362-1.06c-0.138-0.407-0.274-0.847-0.409-1.321
		c-0.126,0.482-0.256,0.928-0.391,1.339c-0.134,0.411-0.261,0.766-0.379,1.066L107.845,33.211z"/>
	<path fill="#FFFF00" d="M132.039,22.547v3.176h-4.858V39.81h-4.005V25.722h-4.858v-3.176H132.039z"/>
	<path fill="#FFFF00" d="M145.286,22.547v3.081H138.2v4.029h5.427v2.962H138.2v4.111h7.086v3.081h-11.114V22.547H145.286z"/>
	<path fill="#FFFF00" d="M157.892,26.054c-0.118,0.19-0.243,0.332-0.373,0.427c-0.13,0.095-0.298,0.142-0.504,0.142
		c-0.182,0-0.377-0.057-0.586-0.172c-0.21-0.114-0.446-0.243-0.711-0.385c-0.265-0.142-0.567-0.271-0.906-0.385
		c-0.34-0.114-0.727-0.172-1.161-0.172c-0.751,0-1.309,0.16-1.676,0.48c-0.367,0.32-0.551,0.752-0.551,1.298
		c0,0.347,0.11,0.636,0.332,0.865c0.221,0.229,0.511,0.427,0.871,0.592c0.359,0.166,0.77,0.318,1.232,0.456
		c0.462,0.139,0.934,0.292,1.416,0.462c0.482,0.17,0.954,0.369,1.416,0.598c0.462,0.229,0.873,0.521,1.232,0.877
		c0.359,0.355,0.65,0.788,0.871,1.297s0.332,1.124,0.332,1.843c0,0.798-0.138,1.544-0.415,2.239
		c-0.277,0.695-0.678,1.301-1.203,1.819c-0.526,0.517-1.173,0.924-1.943,1.22c-0.77,0.296-1.645,0.445-2.624,0.445
		c-0.537,0-1.084-0.055-1.641-0.166c-0.557-0.111-1.096-0.267-1.617-0.468c-0.521-0.202-1.011-0.44-1.469-0.717
		c-0.458-0.276-0.857-0.584-1.197-0.924l1.185-1.872c0.087-0.142,0.209-0.256,0.367-0.344c0.158-0.087,0.328-0.13,0.509-0.13
		c0.237,0,0.476,0.075,0.717,0.225c0.241,0.15,0.513,0.316,0.817,0.498c0.304,0.182,0.654,0.347,1.049,0.498
		c0.395,0.15,0.861,0.225,1.398,0.225c0.727,0,1.291-0.16,1.694-0.48c0.403-0.32,0.604-0.827,0.604-1.523
		c0-0.403-0.111-0.731-0.332-0.983c-0.221-0.253-0.511-0.462-0.871-0.628c-0.36-0.166-0.769-0.312-1.227-0.438
		c-0.458-0.126-0.928-0.267-1.41-0.421c-0.482-0.154-0.952-0.344-1.41-0.569c-0.458-0.225-0.867-0.521-1.227-0.889
		c-0.359-0.367-0.65-0.825-0.871-1.374c-0.221-0.549-0.332-1.227-0.332-2.032c0-0.647,0.13-1.28,0.391-1.896
		c0.261-0.616,0.644-1.165,1.149-1.647c0.505-0.482,1.126-0.867,1.86-1.155c0.735-0.288,1.576-0.433,2.524-0.433
		c0.529,0,1.045,0.041,1.546,0.124c0.502,0.083,0.978,0.206,1.428,0.367c0.45,0.162,0.871,0.355,1.262,0.581
		c0.391,0.225,0.741,0.48,1.049,0.764L157.892,26.054z"/>
	<path fill="#F2F2F2" d="M93.415,14.133c0.566-0.829,1.002-1.736,1.305-2.721c0.187-0.608,0.318-1.234,0.393-1.88
		c0.696-0.001,1.096,0.028,1.154-0.063c0.042-0.066-2.028-2.722-2.286-2.722c-0.278,0-2.613,2.585-2.526,2.676
		c0.067,0.07,0.488,0.079,1.131,0.079c-0.059,0.398-0.143,0.793-0.255,1.183c-0.164,0.574-0.381,1.12-0.652,1.637l-4.727-4.912
		c-0.271-0.279-0.499-0.54-0.683-0.782c-0.185-0.242-0.335-0.478-0.449-0.708c-0.115-0.229-0.199-0.46-0.252-0.689
		c-0.053-0.23-0.08-0.468-0.08-0.714c0-0.296,0.049-0.576,0.148-0.843c0.099-0.267,0.242-0.501,0.431-0.702
		c0.189-0.201,0.418-0.361,0.689-0.48c0.271-0.119,0.579-0.179,0.923-0.179c0.287,0,0.542,0.043,0.763,0.129
		c0.222,0.086,0.414,0.201,0.579,0.345c0.164,0.144,0.304,0.312,0.418,0.505c0.115,0.193,0.209,0.396,0.283,0.609
		c0.066,0.164,0.154,0.285,0.265,0.363c0.111,0.078,0.236,0.117,0.375,0.117c0.025,0,0.051,0,0.08,0c0.029,0,0.055-0.004,0.08-0.012
		l1.933-0.406c-0.041-0.509-0.178-1.001-0.412-1.477c-0.234-0.476-0.554-0.899-0.96-1.268c-0.406-0.369-0.895-0.665-1.465-0.886
		C89.047,0.111,88.401,0,87.679,0c-0.788,0-1.494,0.121-2.118,0.363c-0.624,0.242-1.151,0.568-1.582,0.979
		c-0.431,0.41-0.759,0.893-0.985,1.447c-0.226,0.554-0.339,1.138-0.339,1.754c0,0.583,0.101,1.168,0.302,1.754
		c0.201,0.587,0.519,1.188,0.954,1.803c-0.525,0.246-1.008,0.542-1.446,0.887c-0.439,0.345-0.819,0.73-1.139,1.157
		s-0.57,0.888-0.751,1.385c-0.181,0.497-0.271,1.02-0.271,1.57c0,0.788,0.158,1.496,0.474,2.124
		c0.316,0.628,0.732,1.164,1.249,1.607c0.517,0.443,1.104,0.782,1.761,1.016c0.657,0.234,1.329,0.351,2.019,0.351
		c1.124,0,2.168-0.181,3.133-0.542c0.964-0.361,1.841-0.862,2.629-1.502L92.8,17.42c0.107,0.115,0.209,0.209,0.308,0.283
		c0.099,0.074,0.201,0.134,0.308,0.179c0.107,0.045,0.22,0.076,0.339,0.092c0.119,0.017,0.256,0.025,0.412,0.025h2.979
		L93.415,14.133z M88.325,15.432c-0.595,0.226-1.254,0.339-1.976,0.339c-0.402,0-0.782-0.068-1.139-0.203
		c-0.357-0.135-0.671-0.328-0.942-0.578c-0.271-0.25-0.485-0.556-0.64-0.917c-0.156-0.361-0.234-0.767-0.234-1.219
		c0-0.615,0.15-1.19,0.45-1.724c0.3-0.533,0.777-1.014,1.434-1.44l4.678,4.801C89.464,14.892,88.92,15.206,88.325,15.432z"/>
</g>
</svg>
